<svg width="486" height="329" viewBox="0 0 486 329" fill="none" xmlns="http://www.w3.org/2000/svg">
<path d="M52.7 273.9L61.45 327.2H54.95L48.3699 287.94L29.9 328.5H28.2599L9.88 287.16L3.38 327.16H0L8.66992 273.86H10.3999L30.6 319.1L50.96 273.86L52.7 273.9ZM91.09 327.2H97.77V275.2H91.09V327.2ZM193.7 299.81C190.95 298.81 188.22 297.81 185.51 296.91C182.953 296.101 180.59 294.774 178.57 293.01C177.634 292.184 176.892 291.162 176.397 290.015C175.903 288.869 175.668 287.628 175.71 286.38C175.66 285.143 175.92 283.913 176.464 282.8C177.009 281.688 177.822 280.729 178.83 280.01C181.288 278.369 184.208 277.562 187.16 277.71C191.669 277.643 196.088 278.974 199.81 281.52L201.63 278.67C197.227 275.703 192.007 274.186 186.7 274.33C181.56 274.33 177.443 275.557 174.35 278.01C172.833 279.207 171.622 280.746 170.815 282.502C170.009 284.258 169.63 286.18 169.71 288.11C169.622 290.804 170.347 293.463 171.79 295.74C173.059 297.712 174.843 299.3 176.95 300.33C178.997 301.323 181.223 302.277 183.63 303.19C186.02 304.12 188.25 304.95 190.3 305.71C192.281 306.411 194.052 307.601 195.45 309.17C196.853 310.774 197.596 312.85 197.53 314.98C197.589 316.37 197.299 317.753 196.686 319.002C196.073 320.251 195.156 321.327 194.02 322.13C191.326 323.939 188.122 324.836 184.88 324.69C178.927 324.69 173.987 323.243 170.06 320.35L168.15 323.3C172.197 326.48 177.863 328.07 185.15 328.07C190.75 328.07 195.213 326.77 198.54 324.17C200.179 322.894 201.488 321.244 202.358 319.358C203.228 317.472 203.633 315.405 203.54 313.33C203.676 310.203 202.658 307.135 200.68 304.71C198.811 302.506 196.407 300.819 193.7 299.81ZM252.5 273.9L277.38 327.2H269.84L262.99 312.2H236.64L229.8 327.2H225.98L250.86 273.9H252.5ZM261.5 308.83L249.88 283.43L238.18 308.83H261.5ZM310.7 275.2H304.03V327.2H337.39V323.82H310.7V275.2ZM395.12 260.99H388.79L383.24 270.17H386.7L395.12 260.99ZM404.12 281.87C409.233 286.897 411.79 293.34 411.79 301.2C411.79 309.06 409.233 315.503 404.12 320.53C399 325.55 392.483 328.063 384.57 328.07C376.657 328.077 370.127 325.563 364.98 320.53C359.84 315.503 357.27 309.06 357.27 301.2C357.27 293.34 359.84 286.897 364.98 281.87C370.133 276.843 376.663 274.33 384.57 274.33C392.477 274.33 398.997 276.843 404.13 281.87H404.12ZM404.6 301.2C404.6 294.213 402.763 288.547 399.09 284.2C397.325 282.082 395.099 280.396 392.582 279.269C390.066 278.143 387.325 277.606 384.57 277.7C381.816 277.605 379.077 278.142 376.562 279.268C374.047 280.395 371.823 282.082 370.06 284.2C366.393 288.527 364.557 294.193 364.55 301.2C364.543 308.207 366.38 313.873 370.06 318.2C371.823 320.318 374.047 322.005 376.562 323.132C379.077 324.258 381.816 324.795 384.57 324.7C387.325 324.794 390.066 324.257 392.582 323.131C395.099 322.004 397.325 320.318 399.09 318.2C402.77 313.853 404.61 308.187 404.61 301.2H404.6ZM482.25 275.2V317.15L443.42 273.9H441.7V327.2H445.17V285.27L483.99 328.52H485.7V275.22L482.25 275.2Z" fill="#59C5F3"/>
<path d="M377.93 204.39C370.48 208.6 361.93 210.9 353.93 214.08C363.83 209.25 376.05 174.19 362.34 158.13C352.58 146.73 339.83 137.64 327.58 128.68C317.71 121.46 306.58 116.01 295.96 109.77C282.66 101.92 270.24 93.08 261.82 78.04C260.33 80.93 259.29 82.7 258.49 84.58C242.41 121.9 201.94 211.27 201.94 211.27C201.94 211.27 115.52 49.27 110.94 44.16V210.56H95.0996V6.16C107.1 6.16 119.02 5.96001 130.92 6.40001C132.52 6.46001 134.44 9.58001 135.46 11.65C158.286 57.1833 181.056 102.723 203.77 148.27C204.99 150.69 206.32 153.06 208.61 157.36C216.08 140.11 222.87 124.56 229.61 108.96C240.08 84.54 249.77 59.75 261.14 35.75C272.26 12.28 292.29 1.28 319.56 0C315.85 2.73 313.18 4.61001 310.61 6.62001C295.84 18.01 288.16 35.48 293.95 50C297.24 58.18 303.12 66.71 310.21 71.73C327.16 83.73 345.64 93.52 363.21 104.59C371.366 109.547 379.129 115.123 386.43 121.27C413.85 144.93 409.63 186.49 377.93 204.39Z" fill="#59C5F3"/>
</svg>
